<svg width="413" height="70" viewBox="0 0 413 70" fill="none" xmlns="http://www.w3.org/2000/svg">
<g filter="url(#filter0_i_60_4)">
<path d="M3.09944e-06 0.959999H15.936C21.376 0.959999 25.344 2.24 27.84 4.8C30.336 7.296 31.584 11.168 31.584 16.416V19.104C31.584 22.56 31.008 25.376 29.856 27.552C28.768 29.728 27.072 31.296 24.768 32.256V32.448C30.016 34.24 32.64 38.912 32.64 46.464V52.224C32.64 57.408 31.264 61.376 28.512 64.128C25.824 66.816 21.856 68.16 16.608 68.16H3.09944e-06L3.09944e-06 0.959999ZM14.688 28.32C16.8 28.32 18.368 27.776 19.392 26.688C20.48 25.6 21.024 23.776 21.024 21.216V17.472C21.024 15.04 20.576 13.28 19.68 12.192C18.848 11.104 17.504 10.56 15.648 10.56H10.56V28.32H14.688ZM16.608 58.56C18.464 58.56 19.84 58.08 20.736 57.12C21.632 56.096 22.08 54.368 22.08 51.936V46.08C22.08 43.008 21.536 40.896 20.448 39.744C19.424 38.528 17.696 37.92 15.264 37.92H10.56L10.56 58.56H16.608ZM38.8125 0.959999H67.6125V10.56H49.3725V28.32H63.8685V37.92H49.3725V58.56H67.6125V68.16H38.8125V0.959999ZM73.6875 0.959999H86.9355L97.2075 41.184H97.3995V0.959999H106.808V68.16H95.9595L83.2875 19.104H83.0955V68.16H73.6875V0.959999ZM122.816 0.959999L137.12 0.959999L148.064 68.16H137.504L135.584 54.816V55.008H123.584L121.664 68.16H111.872L122.816 0.959999ZM134.336 45.888L129.632 12.672H129.44L124.832 45.888H134.336ZM167.976 69.12C162.856 69.12 158.952 67.68 156.264 64.8C153.576 61.856 152.232 57.664 152.232 52.224V16.896C152.232 11.456 153.576 7.296 156.264 4.416C158.952 1.472 162.856 0 167.976 0C173.096 0 177 1.472 179.688 4.416C182.376 7.296 183.72 11.456 183.72 16.896V22.656H173.736V16.224C173.736 11.808 171.912 9.6 168.264 9.6C164.616 9.6 162.792 11.808 162.792 16.224V52.992C162.792 57.344 164.616 59.52 168.264 59.52C171.912 59.52 173.736 57.344 173.736 52.992V39.84H168.456V30.24H183.72V52.224C183.72 57.664 182.376 61.856 179.688 64.8C177 67.68 173.096 69.12 167.976 69.12ZM198.66 0.959999H212.964L223.908 68.16H213.348L211.428 54.816V55.008H199.428L197.508 68.16H187.716L198.66 0.959999ZM210.18 45.888L205.476 12.672H205.284L200.676 45.888H210.18ZM232.881 10.56H221.841V0.959999H254.481V10.56H243.441V68.16H232.881V10.56ZM263.348 0.959999H277.652L288.596 68.16H278.036L276.116 54.816V55.008H264.116L262.196 68.16H252.404L263.348 0.959999ZM274.868 45.888L270.164 12.672H269.972L265.364 45.888H274.868ZM293.719 0.959999H321.655V10.56H304.279V29.28H317.911V38.88H304.279V68.16H293.719V0.959999ZM326.719 0.959999H337.279V58.56H354.655V68.16H326.719V0.959999ZM359.719 0.959999H370.279V68.16H359.719V0.959999ZM387.5 33.792L375.884 0.959999L387.02 0.959999L394.124 22.656H394.316L401.612 0.959999H411.596L399.98 33.792L412.172 68.16H401.036L393.356 44.736H393.164L385.292 68.16H375.308L387.5 33.792Z" fill="#FF8FCD"/>
</g>
<defs>
<filter id="filter0_i_60_4" x="0" y="-1" width="412.172" height="70.12" filterUnits="userSpaceOnUse" color-interpolation-filters="sRGB">
<feFlood flood-opacity="0" result="BackgroundImageFix"/>
<feBlend mode="normal" in="SourceGraphic" in2="BackgroundImageFix" result="shape"/>
<feColorMatrix in="SourceAlpha" type="matrix" values="0 0 0 0 0 0 0 0 0 0 0 0 0 0 0 0 0 0 127 0" result="hardAlpha"/>
<feOffset dy="-1"/>
<feGaussianBlur stdDeviation="2"/>
<feComposite in2="hardAlpha" operator="arithmetic" k2="-1" k3="1"/>
<feColorMatrix type="matrix" values="0 0 0 0 0 0 0 0 0 0 0 0 0 0 0 0 0 0 0.25 0"/>
<feBlend mode="normal" in2="shape" result="effect1_innerShadow_60_4"/>
</filter>
</defs>
</svg>
